<?xml version="1.0" standalone="no"?>
<!DOCTYPE svg PUBLIC "-//W3C//DTD SVG 20010904//EN"
 "http://www.w3.org/TR/2001/REC-SVG-20010904/DTD/svg10.dtd">
<svg version="1.0" xmlns="http://www.w3.org/2000/svg"
 width="600.000000pt" height="450.000000pt" viewBox="0 0 600.000000 450.000000"
 preserveAspectRatio="xMidYMid meet">

<g transform="translate(0.000000,450.000000) scale(0.100000,-0.100000)"
fill="#000000" stroke="none">
<path d="M0 2250 l0 -2250 3000 0 3000 0 0 2250 0 2250 -3000 0 -3000 0 0
-2250z m5405 460 l0 -1435 -2399 -3 c-1689 -1 -2402 1 -2406 9 -9 13 -13 2846
-5 2859 4 7 879 9 2408 8 l2402 -3 0 -1435z m-2575 -1795 c16 -8 36 -25 44
-38 16 -25 40 -96 34 -102 -2 -2 -31 -7 -65 -10 -60 -7 -63 -6 -72 17 -13 34
-36 50 -67 46 -34 -4 -53 -31 -38 -55 6 -9 44 -28 85 -41 126 -42 169 -90 169
-189 -1 -93 -51 -162 -134 -184 -49 -13 -145 -5 -186 16 -34 18 -75 84 -84
138 -7 35 -6 37 21 37 15 0 45 3 65 6 31 5 39 3 44 -12 22 -70 57 -94 106 -73
60 25 43 89 -31 115 -140 49 -181 85 -189 162 -12 126 67 198 205 188 34 -3
76 -12 93 -21z m2434 14 c51 -14 91 -55 107 -107 7 -23 10 -44 8 -46 -2 -3
-31 -8 -65 -11 l-61 -7 -13 31 c-18 45 -80 56 -104 19 -18 -30 4 -49 87 -76
98 -31 152 -77 169 -143 25 -99 -38 -206 -133 -229 -59 -14 -134 -8 -183 15
-36 17 -79 85 -89 143 -6 29 -4 32 17 32 13 0 44 3 70 6 38 6 46 4 46 -9 0
-81 117 -118 136 -43 9 37 -11 63 -63 81 -92 33 -122 48 -147 74 -27 28 -46
78 -46 120 0 37 37 107 68 127 50 33 128 42 196 23z m-4529 -101 c-1 -54 2
-98 5 -98 4 0 37 45 75 100 l69 100 88 0 c48 0 88 -3 88 -6 0 -3 -34 -50 -75
-103 -41 -54 -75 -103 -75 -109 0 -6 36 -84 80 -173 44 -90 80 -166 80 -171 0
-4 -37 -8 -83 -8 l-82 0 -49 115 c-26 63 -51 113 -55 111 -4 -3 -21 -24 -37
-47 -25 -36 -29 -52 -29 -108 l0 -66 -67 0 c-38 0 -68 3 -68 8 0 4 0 131 0
282 l0 276 68 -3 67 -3 0 -97z m535 -183 l0 -285 -70 0 -70 0 0 285 0 285 70
0 70 0 0 -285z m500 215 l0 -70 -75 0 -75 0 0 -215 0 -215 -70 0 -70 0 0 215
0 215 -70 0 -70 0 0 70 0 70 215 0 215 0 0 -70z m450 0 l0 -70 -70 0 -70 0 0
-215 0 -215 -70 0 -70 0 0 215 0 215 -70 0 -70 0 0 70 0 70 210 0 210 0 0 -70z
m210 -215 l0 -285 -70 0 -70 0 0 285 0 285 70 0 70 0 0 -285z m927 5 c46 -151
83 -279 83 -283 0 -4 -33 -7 -72 -5 l-73 3 -9 43 -9 42 -83 0 -83 0 -8 -42 -9
-43 -73 -3 c-66 -3 -72 -1 -67 15 3 10 28 95 56 188 28 94 65 214 81 268 l30
98 77 -3 76 -3 83 -275z m253 75 c3 -110 8 -205 12 -211 4 -6 20 -17 36 -23
37 -16 79 0 92 34 6 15 10 112 10 216 l0 189 70 0 70 0 0 -197 c0 -208 -6
-249 -43 -304 -37 -56 -80 -74 -172 -74 -91 1 -130 16 -169 67 -39 53 -46 100
-46 311 l0 198 68 -3 67 -3 5 -200z m719 187 c48 -24 73 -62 79 -120 7 -78
-24 -135 -96 -178 -1 -1 10 -15 25 -31 24 -25 103 -192 103 -216 0 -4 -35 -7
-77 -7 l-78 0 -45 106 c-41 97 -60 124 -89 124 -7 0 -11 -40 -11 -115 l0 -115
-70 0 -70 0 0 285 0 285 148 0 c120 0 153 -3 181 -18z m291 -172 c0 -119 4
-198 11 -214 14 -29 59 -51 89 -41 45 14 51 41 53 247 l2 193 74 3 73 3 -4
-208 c-4 -197 -5 -211 -28 -257 -14 -28 -42 -64 -63 -80 -37 -29 -43 -31 -125
-30 -98 0 -137 15 -172 65 -42 58 -50 110 -50 316 l0 193 70 0 70 0 0 -190z"/>
<path d="M2852 3765 c-99 -18 -203 -50 -291 -91 -41 -19 -78 -34 -82 -34 -5 0
-46 18 -92 39 -217 102 -377 116 -442 39 -26 -31 -32 -53 -49 -192 l-11 -91
-71 -6 c-48 -3 -81 -12 -105 -27 -75 -47 -74 -47 -150 -22 -162 53 -316 -7
-390 -152 -16 -31 -24 -67 -27 -125 l-4 -82 -48 -29 c-58 -36 -97 -98 -112
-181 -21 -114 37 -246 137 -307 26 -16 62 -42 81 -58 l34 -28 -1 -87 c0 -47
-4 -124 -9 -171 -4 -47 -4 -139 1 -204 7 -99 14 -130 37 -181 35 -74 79 -125
136 -159 71 -41 91 -43 126 -8 43 43 42 92 -2 133 -18 16 -35 29 -39 29 -4 0
-20 21 -37 48 -46 73 -56 157 -48 417 7 264 10 256 -120 342 -48 32 -96 70
-107 85 -29 38 -34 119 -11 169 19 43 43 60 110 78 23 6 44 18 47 25 3 8 -3
38 -15 68 -47 123 13 235 137 253 59 9 96 -1 156 -41 28 -19 56 -34 61 -34 6
0 30 18 53 39 48 45 108 65 160 55 56 -10 110 -56 131 -109 16 -44 16 -49 0
-102 -12 -36 -14 -59 -8 -65 6 -6 36 -13 68 -17 69 -8 93 -20 128 -61 55 -66
44 -142 -35 -246 -91 -119 -93 -131 -34 -314 35 -109 55 -224 55 -313 0 -62
18 -93 60 -102 111 -24 134 52 84 287 -14 67 -36 150 -50 186 -31 83 -31 119
2 163 42 55 81 140 94 202 24 119 -27 233 -135 298 -40 24 -61 43 -63 58 -7
46 122 207 239 296 58 45 154 105 168 105 5 0 11 -18 15 -40 12 -77 44 -116
72 -88 7 7 24 50 37 96 14 46 29 88 34 93 10 10 141 44 148 38 2 -3 -5 -38
-16 -79 -23 -90 -24 -124 -3 -145 24 -23 49 -3 101 81 24 38 61 90 83 117 40
46 42 47 98 46 63 0 149 -12 158 -22 4 -4 -9 -24 -29 -46 -54 -60 -87 -117
-87 -151 0 -62 34 -51 155 50 100 83 139 110 159 110 29 0 170 -52 251 -92 74
-37 215 -133 215 -145 0 -3 -20 -27 -44 -53 -43 -46 -66 -98 -66 -150 0 -34
-8 -44 -56 -68 -161 -82 -200 -279 -90 -452 67 -104 71 -118 51 -175 -47 -137
-74 -251 -90 -382 -9 -67 8 -121 41 -134 29 -10 103 3 114 21 4 7 10 52 14
101 9 122 22 186 62 309 49 152 46 182 -30 280 -60 77 -76 112 -76 168 0 87
66 152 156 152 22 0 49 6 59 14 18 13 18 18 7 48 -26 74 -7 153 48 196 28 22
100 45 121 38 8 -2 26 -7 41 -10 15 -3 48 -24 73 -46 25 -22 51 -40 57 -40 6
0 26 11 45 26 71 54 142 67 211 39 101 -43 136 -133 95 -248 -21 -58 -13 -75
42 -92 22 -6 50 -17 61 -23 31 -17 54 -73 54 -133 0 -69 -27 -104 -137 -176
-46 -31 -92 -67 -101 -81 -15 -23 -17 -54 -13 -268 3 -262 -4 -330 -45 -401
-13 -23 -39 -52 -57 -64 -44 -30 -57 -48 -57 -78 0 -34 33 -88 59 -96 54 -17
179 77 223 167 46 93 51 149 44 418 l-7 246 23 20 c13 12 49 38 80 58 106 69
151 148 152 266 1 115 -46 198 -139 245 -17 9 -21 24 -26 95 -13 182 -118 288
-295 298 l-81 4 1 97 c1 126 -8 164 -51 211 -40 45 -81 60 -164 60 -110 0
-300 -50 -422 -112 l-58 -29 -89 35 c-204 81 -394 116 -619 115 -86 0 -189 -7
-229 -14z m1471 -163 c14 -12 17 -31 17 -98 0 -104 -5 -118 -33 -102 -38 20
-120 35 -174 31 -49 -4 -54 -2 -110 43 -32 26 -59 53 -61 59 -4 15 101 58 178
74 108 22 151 20 183 -7z m-2070 -19 c37 -18 67 -35 67 -39 0 -4 -31 -37 -68
-73 -38 -36 -87 -88 -109 -115 l-41 -49 -36 29 c-33 26 -36 33 -36 79 0 74 17
174 31 192 21 24 112 13 192 -24z"/>
<path d="M2758 3297 c-52 -20 -128 -66 -134 -82 -3 -7 5 -30 19 -52 13 -21 27
-49 32 -63 19 -65 54 -88 75 -50 13 24 3 70 -15 70 -7 0 -18 7 -25 15 -9 11
-8 20 6 45 18 29 21 30 92 30 64 0 76 -3 97 -25 31 -30 32 -55 4 -55 -53 0
-76 -44 -45 -86 14 -18 17 -17 61 34 50 56 110 96 162 107 74 15 53 39 -72 84
-105 38 -202 48 -257 28z"/>
<path d="M1762 3127 c-41 -44 -19 -117 36 -117 34 0 75 42 75 78 0 17 -5 38
-13 46 -19 24 -73 20 -98 -7z"/>
<path d="M4146 3134 c-38 -37 2 -124 56 -124 43 1 63 28 59 83 -3 47 -81 75
-115 41z"/>
<path d="M1436 3105 c-24 -25 -28 -52 -11 -84 27 -53 103 -54 125 -2 9 24 9
34 -4 59 -23 44 -79 58 -110 27z"/>
<path d="M4479 3110 c-9 -5 -22 -23 -29 -40 -11 -28 -11 -34 7 -58 28 -38 75
-41 108 -8 29 29 32 62 9 94 -16 23 -65 30 -95 12z"/>
<path d="M2792 2959 c-72 -132 -136 -196 -218 -220 -32 -10 -46 -20 -50 -36
-8 -29 20 -73 46 -73 14 0 24 -15 40 -57 12 -32 33 -84 47 -116 l26 -58 -23
-31 c-18 -24 -22 -43 -22 -93 0 -37 7 -76 16 -94 9 -16 16 -46 16 -65 0 -61
18 -69 139 -62 66 4 121 2 146 -5 105 -28 144 -33 171 -18 35 18 49 50 35 78
-14 26 -6 42 90 188 42 64 69 115 69 131 0 15 -20 61 -45 102 -25 41 -45 81
-45 88 0 7 12 12 29 12 35 0 42 9 43 51 1 36 -14 49 -62 49 -99 1 -270 96
-360 199 -29 34 -57 61 -62 61 -5 0 -17 -14 -26 -31z m-57 -330 c10 -98 -15
-116 -62 -46 -38 56 -38 63 4 91 21 14 41 26 44 26 4 0 10 -32 14 -71z m335
51 c22 -11 40 -23 40 -26 0 -29 -67 -104 -92 -104 -16 0 -18 9 -18 68 0 91 5
95 70 62z m135 -196 c14 -15 25 -38 25 -51 0 -27 -88 -165 -103 -160 -5 1 -16
23 -24 47 -20 60 -40 80 -79 80 -37 0 -76 -39 -101 -102 -14 -35 -18 -38 -54
-38 -27 0 -39 4 -39 15 0 26 48 146 66 167 40 44 111 65 222 67 56 1 66 -2 87
-25z m-435 -211 c66 -74 76 -93 59 -104 -17 -11 -70 -11 -86 -1 -29 18 -56
126 -36 145 12 13 21 7 63 -40z m278 -18 c7 -32 18 -65 25 -73 26 -32 -68 -58
-106 -29 -15 11 -16 16 -2 62 25 84 37 106 54 103 10 -2 20 -24 29 -63z"/>
<path d="M1621 2892 c-36 -20 -60 -54 -61 -87 0 -11 -14 -42 -30 -70 -34 -57
-37 -83 -14 -126 21 -41 74 -62 154 -62 121 1 205 40 227 106 16 49 5 77 -55
137 -26 26 -58 62 -72 80 -33 41 -97 50 -149 22z"/>
<path d="M4259 2895 c-14 -8 -37 -31 -51 -52 -14 -21 -44 -57 -67 -80 -47 -48
-53 -87 -22 -139 37 -61 207 -98 303 -65 78 26 101 103 53 173 -14 21 -28 52
-32 70 -9 48 -21 67 -56 88 -37 23 -91 25 -128 5z"/>
<path d="M1988 2864 c-71 -38 -25 -134 52 -109 48 15 51 92 5 113 -31 14 -24
15 -57 -4z"/>
<path d="M3945 2855 c-19 -18 -24 -31 -20 -48 9 -30 42 -57 70 -57 48 0 74 70
38 102 -35 30 -61 31 -88 3z"/>
<path d="M1290 2798 c-50 -54 32 -135 95 -94 51 33 17 116 -46 116 -16 0 -37
-10 -49 -22z"/>
<path d="M4616 2799 c-55 -43 -16 -119 54 -104 55 12 77 68 40 105 -26 26 -60
25 -94 -1z"/>
<path d="M3171 686 c-11 -47 -21 -90 -21 -96 0 -5 20 -10 45 -10 26 0 45 5 45
11 0 12 -40 173 -45 177 -1 1 -12 -36 -24 -82z"/>
<path d="M4140 755 l0 -55 45 0 c32 0 51 6 65 20 23 23 24 29 10 64 -9 24 -15
26 -65 26 l-55 0 0 -55z"/>
</g>
</svg>
